<svg width="18" height="18" viewBox="0 0 18 18" fill="none" xmlns="http://www.w3.org/2000/svg">
<path d="M14.2948 14.0025L12.6898 10.8L11.0848 14.0025" stroke="white" stroke-width="1.125" stroke-linecap="round" stroke-linejoin="round"/>
<path d="M11.3774 13.4324H14.0174" stroke="white" stroke-width="1.125" stroke-linecap="round" stroke-linejoin="round"/>
<path d="M12.6896 16.5001C10.5896 16.5001 8.87958 14.7976 8.87958 12.6901C8.87958 10.5901 10.5821 8.88013 12.6896 8.88013C14.7896 8.88013 16.4996 10.5826 16.4996 12.6901C16.4996 14.7976 14.7971 16.5001 12.6896 16.5001Z" stroke="white" stroke-width="1.125" stroke-linecap="round" stroke-linejoin="round"/>
<path d="M3.76531 1.5H6.70531C8.25781 1.5 9.00781 2.25001 8.97031 3.76501V6.705C9.00781 8.2575 8.25781 9.00752 6.70531 8.97002H3.76531C2.25031 9.00002 1.50031 8.24999 1.50031 6.69749V3.75751C1.50031 2.25001 2.25031 1.5 3.76531 1.5Z" stroke="white" stroke-width="1.125" stroke-linecap="round" stroke-linejoin="round"/>
<path d="M6.7571 4.38745H3.7121" stroke="white" stroke-width="1.125" stroke-linecap="round" stroke-linejoin="round"/>
<path d="M5.22736 3.87744V4.38744" stroke="white" stroke-width="1.125" stroke-linecap="round" stroke-linejoin="round"/>
<path d="M5.99258 4.37988C5.99258 5.69238 4.96508 6.75737 3.70508 6.75737" stroke="white" stroke-width="1.125" stroke-linecap="round" stroke-linejoin="round"/>
<path d="M6.75724 6.75751C6.20974 6.75751 5.71475 6.465 5.36975 6" stroke="white" stroke-width="1.125" stroke-linecap="round" stroke-linejoin="round"/>
<path d="M1.50061 11.25C1.50061 14.1525 3.84811 16.5 6.75061 16.5L5.96311 15.1875" stroke="white" stroke-width="1.125" stroke-linecap="round" stroke-linejoin="round"/>
<path d="M16.5012 6.75C16.5012 3.8475 14.1537 1.5 11.2512 1.5L12.0387 2.8125" stroke="white" stroke-width="1.125" stroke-linecap="round" stroke-linejoin="round"/>
</svg>
